<svg id="Layer_1" data-name="Layer 1" xmlns="http://www.w3.org/2000/svg" viewBox="0 0 420 298.66"><defs><style>.cls-1{fill:#08b9e3;}</style></defs><title>Blue_Logo</title><path class="cls-1" d="M480.94,243.2l-31,6.59v89.5l30.92-6.57c25.85-5.49,43.12-26.21,43.12-53.85S506.67,237.73,480.94,243.2ZM504,283.1c0,17.93-10.75,28.17-23.91,31L469,316.43V264.55l11.11-2.37C493.26,259.39,504,265.18,504,283.1ZM377.49,265.19l-18.95,4v89.5l18.94-4V297.87l37,48.95,18.94-4V253.3l-18.94,4v56.82ZM268.06,333.13c0,27.65,17.27,41.14,43,35.68l31-6.6v-89.5l-30.92,6.57C285.33,284.77,268.06,305.49,268.06,333.13Zm43.84-35.2L323,295.57v51.89l-11.11,2.36c-13.16,2.8-23.91-3-23.91-20.92S298.74,300.73,311.9,297.93Zm275-22.75c0,11.87-6.34,19.15-16.25,21.25s-16.24-2.48-16.24-14.35V227.57l-19.07,4.06V287c0,23.38,15.71,32.39,35.31,28.22a47.18,47.18,0,0,0,16.24-6.76v20h0c0,12-7.77,23.34-20.75,26.1L186,435.39v19.94l385.59-82C593.12,368.79,606,350,606,330.1V216.61l-19.08,4.06ZM205.07,336.82c0-11.87,6.34-19.15,16.25-21.25s16.24,2.48,16.24,14.35v54.51l19.07-4.06V325c0-23.38-15.71-32.39-35.31-28.22a47.18,47.18,0,0,0-16.24,6.76v-20c0-12,7.77-23.34,20.75-26.1L606,176.61V156.67l-385.59,82C198.89,243.21,186,262,186,281.9V395.39l19.08-4.06Z" transform="translate(-186 -156.67)"/></svg>